<?xml version="1.0" encoding="utf-8"?>
<!-- Generator: Adobe Illustrator 22.0.1, SVG Export Plug-In . SVG Version: 6.00 Build 0)  -->
<svg version="1.1" id="Ebene_1" xmlns="http://www.w3.org/2000/svg" xmlns:xlink="http://www.w3.org/1999/xlink" x="0px" y="0px"
	 viewBox="0 0 698 165.1" style="enable-background:new 0 0 698 165.1;" xml:space="preserve">
<style type="text/css">
	.st0{fill:url(#SVGID_1_);}
	.st1{fill:#424242;}
</style>
<g>
	
		<linearGradient id="SVGID_1_" gradientUnits="userSpaceOnUse" x1="-226.4952" y1="395.6731" x2="-223.6841" y2="401.1088" gradientTransform="matrix(28 0 0 -32.7204 6372 13135.1973)">
		<stop  offset="0" style="stop-color:#FF7854"/>
		<stop  offset="1" style="stop-color:#FD267D"/>
	</linearGradient>
	<path class="st0" d="M42.4,66.7C74.2,56.6,79.2,27.4,75.2,1.1c0,0,0-1.5,1-1C107,15.2,141.3,47,141.3,96
		c0,36.3-28.8,69.1-70.7,69.1C25.2,165.1,0,133.3,0,95.5C0,72.8,15.1,50.1,32.8,40c0,0,1.5,0,1.5,1c0,5,2,17.7,7.6,25.2L42.4,66.7z"
		/>
	<path class="st1" d="M230.1,136.4l2.5-3l7.6,22.7h-1c-5,5-13.1,8.1-23.7,8.1c-10.1,0-17.2-3-22.2-8.1c-5-5-8.1-12.6-8.1-22.2V72.8
		h-18.7V47.5h18.2V17.3H213v30.3h21.7v25.2H212v55.5c0,2.5,1,11.1,9.1,11.1c4,0,7.6-1.5,9.1-3.5V136.4z M245.3,161.6V48h27.3v113.6
		h-27.8H245.3z M258.4,1.6c9.1,0,16.7,7.6,16.7,16.7c0,10.1-7.6,17.2-16.7,17.2c-8.6,0-16.2-7.6-16.2-17.2c0-9.1,7.6-16.7,16.7-16.7
		H258.4z M348.2,45.5c24.2,0,37.3,13.1,37.3,36.8v79.2h-27.3V88.9c-1-12.6-7.6-18.7-20.2-18.7c-12.1,0-21.7,6.6-26.7,13.1v78.2
		h-27.8V48h27.8v12.6C319.5,52.1,332.6,45.5,348.2,45.5z M479.5,59.7V6.2h27.3v156.5h-27.3V150c-10.1,10.1-21.7,15.1-33.8,15.1
		c-30.3,0-50.5-25.2-50.5-60.6s19.7-59,50-59c12.6,0,24.2,5,33.3,14.1H479.5z M479.5,83.9c-6.6-8.1-17.7-13.1-27.8-13.1
		c-17.2,0-28.8,13.6-28.8,34.3c0,20.2,11.1,34.3,28.3,34.3c10.1,0,21.2-5,26.7-13.1V83.9L479.5,83.9z M571.3,45.5
		c33.3,0,56.5,25.2,56.5,61.6v7.6h-84.8c3,16.2,15.1,26.2,32.8,26.2c10.1,0,22.7-5,30.3-12.1l1-1.5l13.6,19.2l-1,1.5
		c-11.1,10.1-27.3,16.7-45.4,16.7c-35.3,0-60.6-25.2-60.6-59.6s25.2-60.6,58-60.6L571.3,45.5z M543.1,94h57.5
		c-1.5-17.2-15.1-25.2-28.8-25.2c-19.2,0-26.7,15.1-28.3,25.2H543.1z M696.5,45.5h1.5v28.3h-2.5c-2-1-5-1.5-7.1-1.5
		c-9.1,0-21.7,6.6-26.2,13.1v75.7h-28.3V48h28.3v12.6c9.1-10.1,21.7-15.1,33.8-15.1H696.5z"/>
</g>
</svg>
